<svg xmlns="http://www.w3.org/2000/svg" xml:space="preserve" width="2048" height="2048" style="shape-rendering:geometricPrecision;text-rendering:geometricPrecision;image-rendering:optimizeQuality;fill-rule:evenodd;clip-rule:evenodd"><defs><style>.fil5{fill:#231f20}.fil4{fill:#f7fafd}</style></defs><g id="Layer_x0020_1"><path style="fill:#009b3a" d="M256 562.5h1536v923H256z"/><path transform="scale(1.76006 1) rotate(-45 1351.967 232.216)" style="fill:#ffe52b" d="M0 0h495.002v495.002H0z"/><g id="_362417616"><path id="_362420760" d="M1247.07 1024c0 123.247-99.875 223.151-223.074 223.151-123.2 0-223.075-99.904-223.075-223.149 0-123.241 99.875-223.149 223.075-223.149 123.2 0 223.074 99.908 223.074 223.148z" style="fill:#005eac"/><path id="_362420112" d="m1246.04 1061.92-9.38 35.884S1086.995 937.792 805.25 970.992l12.804-37.293s249.245-41.232 427.987 128.221z" style="fill:#fff"/><path id="_362420256" class="fil4" d="m1095.85 945.464 2.19 6.896h7.08l-5.73 4.263 2.19 6.896-5.73-4.261-5.73 4.261 2.19-6.896-5.74-4.263h7.09z"/><path id="_362420616" class="fil4" d="m1184.07 1094.64 2.19 6.89h7.08l-5.73 4.26 2.19 6.9-5.73-4.26-5.74 4.26 2.2-6.9-5.73-4.26h7.08z"/><path id="_362419776" class="fil4" d="m1029.59 1115.38 2.19 6.89h7.09l-5.74 4.27 2.2 6.89-5.74-4.26-5.73 4.26 2.2-6.89-5.74-4.27h7.09z"/><path id="_362419608" class="fil4" d="m1145.86 1159.97 1.85 5.82h5.97l-4.83 3.59 1.85 5.82-4.84-3.6-4.83 3.6 1.85-5.82-4.83-3.59h5.97z"/><path id="_362419320" class="fil4" d="m1177.68 1129.26 1.85 5.81h5.97l-4.84 3.6 1.85 5.81-4.83-3.59-4.83 3.59 1.84-5.81-4.83-3.6h5.97z"/><path id="_362419368" class="fil4" d="m1187.77 1116.56 1.85 5.82h5.97l-4.83 3.59 1.84 5.82-4.83-3.6-4.83 3.6 1.84-5.82-4.83-3.59h5.98z"/><path id="_362419968" class="fil4" d="m1083.77 1009.46 1.53 4.84h4.98l-4.03 3 1.54 4.84-4.02-2.99-4.03 2.99 1.54-4.84-4.02-3h4.96z"/><path id="_362419560" class="fil4" d="m1026.44 1049.4 1.77 5.66h5.74l-4.65 3.5 1.79 5.66-4.65-3.5-4.65 3.5 1.77-5.66-4.64-3.5h5.74z"/><path id="_362419704" class="fil4" d="m945.927 1024.35 1.778 5.66h5.734l-4.646 3.5 1.779 5.66-4.645-3.5-4.642 3.5 1.775-5.66-4.646-3.5h5.733z"/><path id="_362419944" class="fil4" d="m863.672 1065.84 2.237 7.21h7.222l-5.855 4.45 2.246 7.21-5.85-4.46-5.85 4.46 2.237-7.21-5.853-4.45h7.22z"/><path id="_362420040" class="fil4" d="m842.43 972.861 2.238 7.206h7.22l-5.85 4.455 2.242 7.21-5.85-4.456-5.85 4.456 2.237-7.21-5.849-4.455h7.22z"/><path id="_362419488" class="fil4" d="m941.71 1134.71 2.171 6.89h7.021l-5.687 4.27 2.179 6.9-5.684-4.26-5.688 4.26 2.176-6.9-5.692-4.27h7.025z"/><path id="_362418720" class="fil4" d="m1053.1 1072.96 1.78 5.66h5.73l-4.65 3.5 1.79 5.66-4.65-3.5-4.64 3.5 1.77-5.66-4.65-3.5h5.74z"/><path id="_362419080" class="fil4" d="m1098.88 1171.55 1.54 4.83h4.97l-4.03 3 1.54 4.84-4.02-2.99-4.03 2.99 1.54-4.84-4.02-3h4.97z"/><path id="_362418600" class="fil4" d="m1112.45 1140.8 1.54 4.83h4.97l-4.03 3 1.55 4.84-4.03-2.99-4.02 2.99 1.53-4.84-4.02-3h4.97z"/><path id="_362418888" class="fil4" d="m1006.48 1072.07 1.54 4.83h4.97l-4.03 3 1.55 4.84-4.03-2.99-4.02 2.99 1.54-4.84-4.027-3h4.967z"/><path id="_362419272" class="fil4" d="m885.06 1055.59 1.279 4.11h4.124l-3.341 2.54 1.284 4.12-3.346-2.55-3.333 2.55 1.274-4.12-3.341-2.54h4.124z"/><path id="_362419248" class="fil4" d="m1145.78 1140.8 1.54 4.83h4.97l-4.02 3 1.54 4.84-4.03-2.99-4.02 2.99 1.54-4.84-4.03-3h4.97z"/><path id="_362418840" class="fil4" d="m1145.8 1178.75 1.34 4.21h4.32l-3.5 2.61 1.34 4.21-3.5-2.6-3.5 2.6 1.34-4.21-3.5-2.61h4.32z"/><path id="_362419008" class="fil4" d="m908.781 1087.3 1.729 5.59h5.596l-4.529 3.45 1.732 5.59-4.528-3.45-4.534 3.45 1.729-5.59-4.528-3.45h5.596z"/><path id="_362418960" class="fil4" d="m835.439 1087.3 1.728 5.59h5.596l-4.528 3.45 1.733 5.59-4.529-3.45-4.534 3.45 1.729-5.59-4.528-3.45h5.596z"/><path id="_362419104" class="fil4" d="m1022.29 1090 1.35 4.21h4.32l-3.5 2.61 1.33 4.21-3.5-2.6-3.5 2.6 1.34-4.21-3.5-2.61h4.32z"/><path id="_362419128" class="fil4" d="m902.831 1116.7 1.337 4.2h4.321l-3.501 2.61 1.342 4.21-3.499-2.6-3.505 2.6 1.338-4.21-3.497-2.61h4.322z"/><path id="_362418504" class="fil4" d="m1213.81 1098.92 1.34 4.21h4.32l-3.5 2.61 1.34 4.21-3.5-2.6-3.51 2.6 1.35-4.21-3.5-2.61h4.32z"/><path id="_362418264" class="fil4" d="m1162.45 1140.8 1.54 4.83h4.97l-4.03 3 1.55 4.84-4.03-2.99-4.03 2.99 1.54-4.84-4.02-3h4.97z"/><path id="_362418312" class="fil4" d="m1079.98 1139.46 1.54 4.84h4.97l-4.03 3 1.54 4.84-4.02-2.99-4.03 2.99 1.54-4.84-4.02-3h4.97z"/><path id="_362418000" class="fil4" d="m1028.41 1187.98.72 2.31h2.32l-1.88 1.43.72 2.31-1.88-1.43-1.88 1.43.72-2.31-1.87-1.43h2.32z"/><path id="_362418024" class="fil5" d="M837.213 948.2c0-2.024.325-3.728.967-5.104a9.414 9.414 0 0 1 1.97-2.73c.83-.805 1.743-1.401 2.735-1.792 1.317-.524 2.833-.787 4.553-.787 3.113 0 5.609.91 7.475 2.729 1.87 1.817 2.809 4.349 2.809 7.59 0 3.212-.93 5.727-2.788 7.542-1.854 1.817-4.333 2.722-7.437 2.722-3.145 0-5.642-.902-7.497-2.708-1.857-1.807-2.787-4.292-2.787-7.462zm4.388-.137c0 2.258.554 3.967 1.666 5.132 1.105 1.163 2.513 1.744 4.222 1.744 1.704 0 3.108-.575 4.203-1.73 1.096-1.159 1.642-2.888 1.642-5.197 0-2.283-.533-3.985-1.6-5.11-1.062-1.124-2.478-1.685-4.245-1.685-1.763 0-3.188.572-4.268 1.705-1.083 1.137-1.62 2.852-1.62 5.141z"/><path id="_362418360" class="fil5" d="M1065.47 982.911c0-2.024.32-3.728.961-5.102a9.408 9.408 0 0 1 1.972-2.731c.829-.806 1.742-1.402 2.733-1.792 1.317-.525 2.833-.788 4.559-.788 3.108 0 5.604.91 7.475 2.729 1.866 1.819 2.804 4.35 2.804 7.59 0 3.213-.93 5.728-2.784 7.542-1.858 1.815-4.333 2.724-7.44 2.724-3.143 0-5.643-.904-7.493-2.71-1.862-1.806-2.787-4.292-2.787-7.462zm4.378-.136c0 2.258.559 3.968 1.672 5.13 1.104 1.164 2.512 1.747 4.22 1.747 1.709 0 3.113-.577 4.204-1.732 1.096-1.157 1.642-2.887 1.642-5.196 0-2.283-.534-3.986-1.596-5.11-1.066-1.123-2.483-1.686-4.25-1.686-1.763 0-3.187.572-4.262 1.706-1.083 1.136-1.63 2.852-1.63 5.141z"/><path id="_362417928" class="fil5" d="M865.901 957.654v-20.796h10.53c2.645 0 4.574.185 5.779.557 1.195.374 2.154 1.038 2.878 1.99.722.956 1.084 2.044 1.084 3.275 0 1.557-.545 2.846-1.633 3.86-1.088 1.017-2.717 1.655-4.884 1.92 1.08.532 1.975 1.115 2.675 1.75.7.633 1.65 1.76 2.847 3.38l3.024 4.064h-5.991l-3.6-4.53c-1.288-1.624-2.171-2.645-2.646-3.065-.475-.421-.976-.712-1.508-.864-.53-.16-1.376-.237-2.526-.237l-1.02-.002v8.698h-5.009zm5.01-12.024h3.698c2.409 0 3.905-.085 4.505-.254.592-.168 1.062-.461 1.4-.875.341-.415.512-.932.512-1.554 0-.7-.225-1.264-.67-1.689-.45-.429-1.072-.698-1.888-.815-.404-.047-1.62-.07-3.65-.07h-3.908v5.257z"/><path id="_362418168" class="fil5" d="m1038.11 980.461 6.544-19.741 10 3.317c2.505.831 4.275 1.615 5.3 2.348 1.022.73 1.721 1.661 2.113 2.795.388 1.135.383 2.28-.004 3.448-.487 1.477-1.416 2.53-2.766 3.15-1.35.622-3.096.716-5.239.287.856.844 1.526 1.678 1.988 2.5.468.824 1.012 2.189 1.638 4.106l1.591 4.812-5.682-1.889-1.992-5.43c-.713-1.95-1.225-3.197-1.55-3.744-.321-.549-.7-.982-1.159-1.295-.445-.318-1.23-.66-2.32-1.022l-.967-.319-2.738 8.254-4.757-1.577zm8.54-9.835 3.51 1.163c2.286.757 3.737 1.15 4.357 1.177.617.026 1.15-.103 1.6-.391.458-.285.78-.722.98-1.311.217-.666.182-1.27-.108-1.816-.288-.546-.796-1.001-1.53-1.367-.374-.173-1.516-.578-3.45-1.217l-3.708-1.228-1.65 4.99z"/><path id="_362417880" class="fil5" d="m1114.09 1009.68 9.725-18.387 9.308 4.928c2.333 1.235 3.95 2.296 4.842 3.193.883.887 1.42 1.92 1.62 3.104.193 1.183 0 2.312-.575 3.4-.729 1.375-1.816 2.262-3.25 2.646-1.437.39-3.175.195-5.213-.58.706.976 1.226 1.905 1.547 2.792.326.892.633 2.33.933 4.32l.776 5.008-5.296-2.799-1.063-5.688c-.383-2.037-.68-3.353-.909-3.945-.224-.596-.524-1.083-.93-1.471-.39-.388-1.099-.854-2.12-1.387l-.9-.48-4.066 7.688-4.429-2.342zm10.05-8.283 3.267 1.724c2.133 1.126 3.5 1.755 4.103 1.88.605.13 1.154.088 1.647-.116.496-.21.887-.588 1.178-1.134.322-.621.392-1.221.196-1.808-.196-.589-.624-1.121-1.284-1.6-.34-.233-1.403-.822-3.2-1.771l-3.453-1.83-2.454 4.655z"/><path id="_362418336" class="fil5" d="M893.872 937.169h8.654c1.95 0 3.438.135 4.459.4 1.38.36 2.554 1.004 3.537 1.93.98.925 1.73 2.054 2.237 3.395.514 1.337.771 2.992.771 4.952 0 1.725-.242 3.213-.72 4.462-.587 1.524-1.421 2.757-2.512 3.7-.821.717-1.93 1.27-3.326 1.673-1.046.294-2.442.442-4.192.442h-8.908v-20.954zm4.73 3.542v13.869h3.55c1.328 0 2.283-.069 2.87-.201.77-.171 1.412-.462 1.921-.87.505-.408.92-1.084 1.242-2.022.324-.935.483-2.216.483-3.836 0-1.618-.159-2.86-.483-3.727-.32-.867-.772-1.54-1.346-2.027-.58-.487-1.313-.816-2.2-.986-.663-.133-1.967-.2-3.9-.2H898.6z"/><path id="_362417232" class="fil5" d="m920.959 958.822.872-20.935 17.341.724-.145 3.539-12.61-.527-.191 4.644 11.713.49-.15 3.542-11.713-.49-.237 5.67 13.079.546-.15 3.54z"/><path id="_362417688" class="fil5" d="m1137.56 1022.12 9.77-18.54 15.36 8.09-1.66 3.13-11.16-5.88-2.17 4.12 10.38 5.46-1.65 3.14-10.38-5.47-2.65 5.02 11.58 6.11-1.65 3.13z"/><path id="_362417016" class="fil5" d="m985.106 967.368 3.249-17.107 14.175 2.692-.56 2.888-10.298-1.955-.717 3.795 9.575 1.818-.554 2.898-9.575-1.819-.879 4.633 10.688 2.026-.545 2.893z"/><path id="_362417064" class="fil5" d="m946.448 961.373 2.416-20.817 6.396.746 2.166 14.64 5.434-13.761 6.425.746-2.417 20.817-3.963-.461 1.889-16.39-6.122 15.9-4.096-.478-2.245-16.868-1.921 16.384z"/><path id="_362417592" class="fil5" d="M1204.88 1055.91c.755-1.88 1.691-3.337 2.8-4.37a9.44 9.44 0 0 1 2.846-1.8c1.07-.438 2.141-.65 3.208-.643 1.413.009 2.92.326 4.52.971 2.885 1.162 4.863 2.938 5.918 5.326 1.05 2.379.975 5.079-.238 8.083-1.196 2.98-2.996 4.967-5.396 5.958-2.4.992-5.037.913-7.917-.246-2.92-1.179-4.9-2.946-5.94-5.312-1.05-2.37-.99-5.021.199-7.967zm4.117 1.513c-.847 2.1-.967 3.892-.372 5.387.597 1.488 1.685 2.546 3.267 3.193 1.584.633 3.1.624 4.546-.035 1.45-.666 2.6-2.065 3.463-4.216.85-2.117.991-3.892.429-5.33-.57-1.442-1.675-2.49-3.313-3.15-1.637-.657-3.17-.662-4.59-.011-1.43.65-2.576 2.037-3.43 4.162z"/><path id="_362417136" class="fil5" d="m1182.58 1039.91 4.016 2.288c-.533 1.254-.625 2.375-.287 3.375.338.996 1.095 1.904 2.278 2.722 1.254.87 2.359 1.29 3.305 1.274.959-.016 1.645-.33 2.062-.95.272-.383.376-.812.296-1.275-.079-.458-.37-1.017-.891-1.683-.363-.442-1.234-1.4-2.596-2.871-1.776-1.888-2.859-3.446-3.242-4.679-.541-1.734-.35-3.255.563-4.57.587-.856 1.411-1.451 2.483-1.809 1.066-.35 2.25-.367 3.567-.026 1.308.334 2.695 1.009 4.175 2.034 2.408 1.671 3.9 3.387 4.475 5.158.575 1.771.366 3.442-.643 5.034l-3.97-2.58c.43-.97.496-1.838.22-2.591-.282-.755-.962-1.505-2.057-2.258-1.126-.784-2.143-1.192-3.063-1.23-.58-.017-1.025.183-1.325.617-.27.395-.313.866-.125 1.412.234.696 1.175 1.892 2.787 3.584 1.613 1.687 2.742 3.062 3.355 4.096.621 1.041.937 2.095.946 3.158.016 1.07-.346 2.138-1.075 3.188-.663.962-1.584 1.641-2.78 2.057-1.183.409-2.483.422-3.887.055-1.405-.375-2.943-1.138-4.613-2.305-2.437-1.683-3.967-3.466-4.592-5.345-.628-1.875-.425-3.838.618-5.88z"/><path id="_362417112" class="fil5" d="m1161.67 1026.84 4.012 2.283c-.532 1.253-.625 2.375-.287 3.38.338.99 1.1 1.903 2.283 2.716 1.255.87 2.354 1.29 3.304 1.279.955-.017 1.642-.333 2.058-.954.272-.384.38-.808.297-1.275-.076-.46-.37-1.017-.892-1.684-.358-.437-1.23-1.4-2.596-2.867-1.77-1.887-2.855-3.45-3.242-4.678-.54-1.734-.35-3.259.567-4.576.583-.85 1.413-1.45 2.484-1.804 1.062-.355 2.25-.366 3.566-.025 1.305.333 2.691 1.009 4.175 2.034 2.404 1.671 3.896 3.387 4.47 5.154.58 1.767.368 3.442-.636 5.033l-3.971-2.58c.425-.97.496-1.836.216-2.591-.282-.754-.963-1.504-2.058-2.262-1.12-.78-2.137-1.183-3.059-1.225-.583-.021-1.025.183-1.325.617-.274.395-.316.866-.129 1.412.238.696 1.18 1.891 2.788 3.587 1.617 1.683 2.741 3.058 3.358 4.092.616 1.041.937 2.096.942 3.163.017 1.071-.346 2.133-1.071 3.183-.666.962-1.584 1.642-2.78 2.062-1.186.404-2.483.417-3.89.05-1.405-.375-2.938-1.137-4.61-2.3-2.436-1.688-3.97-3.47-4.595-5.35-.625-1.875-.42-3.837.621-5.874z"/><path id="_362417376" class="fil5" d="m1100.52 995.807 1.463-3.149 8.687 4.05-3.47 7.45c-1.2.37-2.742.466-4.621.296a15.718 15.718 0 0 1-5.288-1.404c-2.1-.98-3.734-2.239-4.9-3.784-1.183-1.546-1.804-3.263-1.875-5.15-.07-1.891.313-3.736 1.146-5.53.908-1.944 2.146-3.47 3.73-4.575 1.579-1.105 3.407-1.661 5.461-1.684 1.576-.025 3.318.411 5.23 1.304 2.484 1.162 4.2 2.549 5.154 4.168.942 1.62 1.225 3.376.825 5.263l-4.342-1.159a4.424 4.424 0 0 0-.583-2.903c-.541-.889-1.392-1.604-2.554-2.15-1.775-.825-3.417-.957-4.95-.397-1.533.56-2.776 1.863-3.733 3.92-1.038 2.218-1.288 4.13-.739 5.735.539 1.604 1.668 2.808 3.384 3.608.846.4 1.77.637 2.776.73.995.087 1.904.049 2.725-.105l1.112-2.375-4.638-2.159z"/><path id="_362417448" class="fil5" d="m1014.73 973.43 6.82-19.87 6.393 2.194c2.421.83 3.963 1.469 4.633 1.922 1.026.689 1.75 1.659 2.171 2.922.417 1.262.358 2.685-.187 4.269-.42 1.222-.996 2.172-1.713 2.855-.729.681-1.513 1.144-2.35 1.385-.841.246-1.637.323-2.392.235-1.016-.136-2.425-.514-4.229-1.132l-2.59-.89-2.567 7.479-3.989-1.369zm9.654-15.14-1.945 5.671 2.183.749c1.57.538 2.658.794 3.258.765.6-.027 1.133-.21 1.58-.554.454-.341.79-.805.992-1.397.249-.725.24-1.4-.026-2.018a2.877 2.877 0 0 0-1.291-1.437c-.446-.252-1.388-.624-2.825-1.118l-1.926-.662z"/></g></g><path style="fill:none" d="M0 0h2048v2048H0z"/></svg>