<svg xmlns="http://www.w3.org/2000/svg" xml:space="preserve" width="2048" height="2048" style="shape-rendering:geometricPrecision;text-rendering:geometricPrecision;image-rendering:optimizeQuality;fill-rule:evenodd;clip-rule:evenodd"><defs><style>.fil1{fill:#be2033}.fil3{fill:#fff}</style></defs><g id="Layer_x0020_1"><g id="_233009080"><path id="_233013736" style="fill:#eee" d="M255.999 562.499h1536v923h-1536z"/><path id="_233013136" class="fil1" d="M1792 633.493H871.112v-70.994H1792z"/><path id="_233013616" class="fil1" d="M1792 773.049H871.112v-70.995H1792z"/><path id="_233013544" class="fil1" d="M1792 913.009H871.112v-70.997H1792z"/><path id="_233013640" class="fil1" d="M1792 1050.53H871.112v-70.995H1792z"/><path id="_233012896" class="fil1" d="M1792 1188.05H255.999v-71H1792z"/><path id="_233012272" class="fil1" d="M1792 1335.31H255.999v-70.99H1792z"/><path id="_233012728" class="fil1" d="M1792 1485.5H255.999v-70.99H1792z"/><path id="_233012464" style="fill:#212f64" d="M961.805 1050.54H255.999V562.499h705.806z"/><path id="_233012416" class="fil3" d="M287.954 603.814h20.553l7.531-21.573 8.343 21.573h20.355l-15.47 14.144 5.7 21.471-18.622-12.008-17.4 12.008 5.085-21.471z"/><path id="_233012584" class="fil3" d="M403.552 603.814h20.556l7.529-21.573 8.345 21.573h20.352l-15.467 14.144 5.699 21.471-18.624-12.008-17.401 12.008 5.087-21.471z"/><path id="_233012512" class="fil3" d="M523.22 603.814h20.558l7.529-21.573 8.343 21.573h20.353l-15.468 14.144 5.698 21.471-18.621-12.008-17.401 12.008 5.089-21.471z"/><path id="_233012680" class="fil3" d="M638.821 603.814h20.556l7.528-21.573 8.346 21.573h20.348l-15.463 14.144 5.694 21.471-18.62-12.008-17.4 12.008 5.089-21.471z"/><path id="_233012824" class="fil3" d="M755.234 603.814h20.556l7.532-21.573 8.342 21.573h20.356l-15.471 14.144 5.699 21.471-18.621-12.008-17.402 12.008 5.085-21.471z"/><path id="_233012488" class="fil3" d="M874.09 603.814h20.552l7.531-21.573 8.345 21.573h20.354l-15.471 14.144 5.702 21.471-18.624-12.008-17.398 12.008 5.085-21.471z"/><path id="_233011528" class="fil3" d="M345.751 655.304h20.554l7.532-21.574 8.342 21.574h20.355l-15.469 14.144 5.7 21.473-18.623-12.007-17.402 12.007 5.087-21.473z"/><path id="_233011840" class="fil3" d="M461.353 655.304h20.552l7.532-21.574 8.343 21.574h20.353l-15.468 14.144 5.7 21.473-18.622-12.007-17.401 12.007 5.086-21.473z"/><path id="_233012056" class="fil3" d="M581.021 655.304h20.555l7.532-21.574 8.342 21.574h20.354l-15.47 14.144 5.7 21.473-18.623-12.007-17.4 12.007 5.085-21.473z"/><path id="_233011792" class="fil3" d="M696.619 655.304h20.556l7.532-21.574 8.341 21.574h20.353l-15.467 14.144 5.698 21.473-18.62-12.007-17.402 12.007 5.09-21.473z"/><path id="_233011624" class="fil3" d="M813.036 655.304h20.551l7.532-21.574 8.342 21.574h20.353l-15.466 14.144 5.698 21.473-18.621-12.007-17.402 12.007 5.089-21.473z"/><path id="_233011888" class="fil3" d="M287.954 700.69h20.553l7.531-21.576 8.343 21.576h20.355l-15.47 14.143 5.7 21.47-18.622-12.007-17.4 12.007 5.085-21.47z"/><path id="_233011720" class="fil3" d="M403.552 700.69h20.556l7.529-21.576 8.345 21.576h20.352l-15.467 14.143 5.699 21.47-18.624-12.007-17.401 12.007 5.087-21.47z"/><path id="_233011648" class="fil3" d="M523.22 700.69h20.558l7.529-21.576 8.343 21.576h20.353l-15.468 14.143 5.698 21.47-18.621-12.007-17.401 12.007 5.089-21.47z"/><path id="_233011480" class="fil3" d="M638.821 700.69h20.556l7.528-21.576 8.346 21.576h20.348l-15.463 14.143 5.694 21.47-18.62-12.007-17.4 12.007 5.089-21.47z"/><path id="_233012128" class="fil3" d="M755.234 700.69h20.556l7.532-21.576 8.342 21.576h20.356l-15.471 14.143 5.699 21.47-18.621-12.007-17.402 12.007 5.085-21.47z"/><path id="_233012104" class="fil3" d="M874.09 700.69h20.552l7.531-21.576 8.345 21.576h20.354l-15.471 14.143 5.702 21.47-18.624-12.007-17.398 12.007 5.085-21.47z"/><path id="_233011096" class="fil3" d="M345.751 752.18h20.554l7.532-21.574 8.342 21.574h20.355l-15.469 14.143 5.7 21.471-18.623-12.006-17.402 12.006 5.087-21.471z"/><path id="_233010712" class="fil3" d="M461.353 752.18h20.552l7.532-21.574 8.343 21.574h20.353l-15.468 14.143 5.7 21.471-18.622-12.006-17.401 12.006 5.086-21.471z"/><path id="_233010904" class="fil3" d="M581.021 752.18h20.555l7.532-21.574 8.342 21.574h20.354l-15.47 14.143 5.7 21.471-18.623-12.006-17.4 12.006 5.085-21.471z"/><path id="_233010736" class="fil3" d="M696.619 752.18h20.556l7.532-21.574 8.341 21.574h20.353l-15.467 14.143 5.698 21.471-18.62-12.006-17.402 12.006 5.09-21.471z"/><path id="_233011264" class="fil3" d="M813.036 752.18h20.551l7.532-21.574 8.342 21.574h20.353l-15.466 14.143 5.698 21.471-18.621-12.006-17.402 12.006 5.089-21.471z"/><path id="_233011456" class="fil3" d="M287.954 799.194h20.553l7.531-21.575 8.343 21.575h20.355l-15.47 14.143 5.7 21.47-18.622-12.007-17.4 12.007 5.085-21.47z"/><path id="_233011312" class="fil3" d="M403.552 799.194h20.556l7.529-21.575 8.345 21.575h20.352l-15.467 14.143 5.699 21.47-18.624-12.007-17.401 12.007 5.087-21.47z"/><path id="_233011408" class="fil3" d="M523.22 799.194h20.558l7.529-21.575 8.343 21.575h20.353l-15.468 14.143 5.698 21.47-18.621-12.007-17.401 12.007 5.089-21.47z"/><path id="_233011144" class="fil3" d="M638.821 799.194h20.556l7.528-21.575 8.346 21.575h20.348l-15.463 14.143 5.694 21.47-18.62-12.007-17.4 12.007 5.089-21.47z"/><path id="_233011048" class="fil3" d="M755.234 799.194h20.556l7.532-21.575 8.342 21.575h20.356l-15.471 14.143 5.699 21.47-18.621-12.007-17.402 12.007 5.085-21.47z"/><path id="_233010136" class="fil3" d="M874.09 799.194h20.552l7.531-21.575 8.345 21.575h20.354l-15.471 14.143 5.702 21.47-18.624-12.007-17.398 12.007 5.085-21.47z"/><path id="_233009968" class="fil3" d="M345.751 850.685h20.554l7.532-21.574 8.342 21.574h20.355l-15.469 14.144 5.7 21.47-18.623-12.007-17.402 12.007 5.087-21.47z"/><path id="_233010496" class="fil3" d="M461.353 850.685h20.552l7.532-21.574 8.343 21.574h20.353l-15.468 14.144 5.7 21.47-18.622-12.007-17.401 12.007 5.086-21.47z"/><path id="_233010088" class="fil3" d="M581.021 850.685h20.555l7.532-21.574 8.342 21.574h20.354l-15.47 14.144 5.7 21.47-18.623-12.007-17.4 12.007 5.085-21.47z"/><path id="_233010280" class="fil3" d="M696.619 850.685h20.556l7.532-21.574 8.341 21.574h20.353l-15.467 14.144 5.698 21.47-18.62-12.007-17.402 12.007 5.09-21.47z"/><path id="_233010184" class="fil3" d="M813.036 850.685h20.551l7.532-21.574 8.342 21.574h20.353l-15.466 14.144 5.698 21.47-18.621-12.007-17.402 12.007 5.089-21.47z"/><path id="_233010112" class="fil3" d="M287.954 896.272h20.553l7.531-21.574 8.343 21.574h20.355l-15.47 14.144 5.7 21.469-18.622-12.006-17.4 12.006 5.085-21.469z"/><path id="_233010400" class="fil3" d="M403.552 896.272h20.556l7.529-21.574 8.345 21.574h20.352l-15.467 14.144 5.699 21.469-18.624-12.006-17.401 12.006 5.087-21.469z"/><path id="_233010616" class="fil3" d="M523.22 896.272h20.558l7.529-21.574 8.343 21.574h20.353l-15.468 14.144 5.698 21.469-18.621-12.006-17.401 12.006 5.089-21.469z"/><path id="_233010568" class="fil3" d="M638.821 896.272h20.556l7.528-21.574 8.346 21.574h20.348l-15.463 14.144 5.694 21.469-18.62-12.006-17.4 12.006 5.089-21.469z"/><path id="_233010688" class="fil3" d="M755.234 896.272h20.556l7.532-21.574 8.342 21.574h20.356l-15.471 14.144 5.699 21.469-18.621-12.006-17.402 12.006 5.085-21.469z"/><path id="_233009224" class="fil3" d="M874.09 896.272h20.552l7.531-21.574 8.345 21.574h20.354l-15.471 14.144 5.702 21.469-18.624-12.006-17.398 12.006 5.085-21.469z"/><path id="_233009200" class="fil3" d="M287.954 992.33h20.553l7.531-21.567 8.343 21.567h20.355l-15.47 14.15 5.7 21.47-18.622-12.01-17.4 12.01 5.085-21.47z"/><path id="_233009800" class="fil3" d="M403.552 992.33h20.556l7.529-21.567 8.345 21.567h20.352l-15.467 14.15 5.699 21.47-18.624-12.01-17.401 12.01 5.087-21.47z"/><path id="_233009728" class="fil3" d="M523.22 992.33h20.558l7.529-21.567 8.343 21.567h20.353l-15.468 14.15 5.698 21.47-18.621-12.01-17.401 12.01 5.089-21.47z"/><path id="_233009584" class="fil3" d="M638.821 992.33h20.556l7.528-21.567 8.346 21.567h20.348l-15.463 14.15 5.694 21.47-18.62-12.01-17.4 12.01 5.089-21.47z"/><path id="_233009488" class="fil3" d="M755.234 992.33h20.556l7.532-21.567 8.342 21.567h20.356l-15.471 14.15 5.699 21.47-18.621-12.01-17.402 12.01 5.085-21.47z"/><path id="_233009680" class="fil3" d="M874.09 992.33h20.552l7.531-21.567 8.345 21.567h20.354l-15.471 14.15 5.702 21.47-18.624-12.01-17.398 12.01 5.085-21.47z"/><path id="_233009752" class="fil3" d="M345.751 947.766h20.554l7.532-21.576 8.342 21.576h20.355l-15.469 14.142 5.7 21.471-18.623-12.007-17.402 12.007 5.087-21.471z"/><path id="_233009848" class="fil3" d="M461.353 947.766h20.552l7.532-21.576 8.343 21.576h20.353l-15.468 14.142 5.7 21.471-18.622-12.007-17.401 12.007 5.086-21.471z"/><path id="_233009536" class="fil3" d="M581.021 947.766h20.555l7.532-21.576 8.342 21.576h20.354l-15.47 14.142 5.7 21.471-18.623-12.007-17.4 12.007 5.085-21.471z"/><path id="_233008720" class="fil3" d="M696.619 947.766h20.556l7.532-21.576 8.341 21.576h20.353l-15.467 14.142 5.698 21.471-18.62-12.007-17.402 12.007 5.09-21.471z"/><path id="_233009104" class="fil3" d="M813.036 947.766h20.551l7.532-21.576 8.342 21.576h20.353l-15.466 14.142 5.698 21.471-18.621-12.007-17.402 12.007 5.089-21.471z"/></g></g><path style="fill:none" d="M0 0h2048v2048H0z"/></svg>